<svg version="1" xmlns="http://www.w3.org/2000/svg" width="949.333" height="949.333" viewBox="0 0 712.000000 712.000000"><path d="M245.4 11.5c-16.2 2.9-20.4 5.2-68.4 38-21.3 14.6-44.4 29.8-51.3 33.9-23.2 13.8-45 24-59.6 27.6l-4.4 1.1 4.4 4.5c8.9 9.1 21.2 15 34.3 16.4 6.8.8 9.9 1.8 19.3 6.5 8.8 4.3 13.2 5.8 20.5 7.1 5.1.9 11.8 2.5 14.8 3.6 11.6 4.2 14.9 4.9 27 5.8 9 .6 14.6 1.6 19.9 3.4 9.3 3.2 12 3.2 22.1 0 4.5-1.4 8.3-2.4 8.5-2.2.1.2 2.3 4.6 4.8 10 6 12.8 9.6 17.8 17.1 23.9l6.3 5.1-2.4 7.1c-2.1 6-2.5 8.4-2 15.2.5 9.7 4.2 21.6 9.4 30.5 4.4 7.5 16.3 20.4 22.2 24 2.6 1.6 4.1 3.2 4.1 4.6 0 1.1-2.4 5.1-5.4 8.9-6.1 7.6-11 16.7-12.5 23.5-1.3 5.7-1.4 35.3-.1 44.3 1.6 11.1 7.1 21.7 19 36.2l5.8 7-3.5 4c-5.4 6.2-14.4 20.2-16.4 25.6-1.5 3.9-1.9 7.7-1.9 17.7 0 23.9 1.8 29.1 16.4 48.4 13 17.3 12.5 15.7 7.7 22.9-4.8 7.2-5.6 10.5-5.5 22.9.1 16.2 4.2 27.8 13.9 39 3 3.5 5.5 7.2 5.5 8.2 0 1-1.7 5.1-3.7 9-3.8 7.2-3.8 7.2-3.8 19.2.1 22.6 6.2 32.7 24.9 41.7l8.3 4 .6 16.7c.3 9.2 1 18.3 1.6 20.3 2.3 7.4 7.9 8.9 10.1 2.6 1.2-3.5 2.9-23.9 3-35.8v-7.6l6.5-.6c11.4-1.1 19.4-6.8 24.9-17.8 4.5-8.9 6-16.4 5.3-26.4-.5-8.1-2.3-13.2-7.6-21-1.2-1.7-2.1-3.5-2.1-4.2 0-.6 3.2-5.3 7-10.4 11.3-14.9 15-24.2 15-38 0-4.1-.7-10-1.6-13-2.2-7.6-8.2-18.7-10.5-19.4-4.1-1.3-1.2-5.9 12.1-18.9 12.5-12.4 15.5-17.8 17.1-31.6 1.5-13 0-31.2-3.1-37.6-1.3-2.5-6.1-8.6-10.7-13.5l-8.5-8.8 6.4-5.8c13.9-12.7 20.3-21.6 24.1-33.8 1.9-6.1 2.2-9.2 2.2-24.5 0-15.9-.3-18-2.3-23.2-2.9-7.1-8.2-15.1-16.1-24.2l-6-6.8 10.2-11.2c18.8-20.6 24.6-32.4 24.7-50.1.1-10.8 1.2-15.1 4.7-17.7 7.2-5.4 16.3-15.8 19.6-22.5 2-3.8 4.1-7.4 4.9-8 1.9-1.5 5.7-2 32.8-4.3 26.5-2.3 37-4 44-7.3 3.4-1.6 7.4-2.2 16.5-2.7 9.8-.6 13-1.2 17.5-3.2 8.4-3.9 14.5-5.7 22.3-6.8 9.7-1.4 17.1-5 24.1-11.8 7.5-7.3 11.6-13.6 11.6-17.9V110h-10.3c-10.2 0-10.5-.1-19.3-4.4-22.2-10.8-48.2-27.1-82.5-51.7-49.8-35.6-61.7-41.4-88-42.6-12.7-.6-19.7.7-27.6 5.4-6.1 3.5-15.2 13.8-18.4 20.8-3.1 6.6-5.3 18.7-4.4 24.4 2.1 12.6 4.6 19 11.1 28 1.8 2.7 3.4 5.4 3.4 6 0 .7-2.6 2.4-5.7 3.8-4.9 2.3-7.2 2.7-15.3 2.7l-9.5.1-.8-10.5c-1.4-17.5-.6-25.1 3.8-36 6.1-15.5 5.1-26.6-3.4-36.3-13.4-15.2-41.5-10.8-50.8 8.1-2.4 4.8-2.8 6.9-2.8 13.7.1 6.9.6 9.3 3.9 17.5 3.5 8.6 3.9 10.5 4.3 21 .5 13-.6 18.1-4.7 21.1-2.8 2.1-10.6 3.5-14.3 2.5-2.5-.6-12.7-9.1-12.7-10.6 0-.5 2.8-4.5 6.1-9 9.8-13 12.4-22.8 9.5-35.3-6.8-28.9-33.1-43.4-67.2-37.2zm30.1 6.7c7.7 1.7 16.4 6.5 22 12.3 7.5 7.7 8.8 11 8.3 21.4-.5 10.6-3.1 16.2-11.7 25.4-3.3 3.5-6.3 7.5-6.6 8.9-1 4.1 1.9 9.3 9.9 17.5l7.5 7.6 5.3-.7c2.9-.3 8.3-.9 11.9-1.2l6.7-.7.7 8.9c1 11.3 0 26.6-2 30.3-1.8 3.5-7.6 5.1-19.1 5.1-12 0-24.3-5.2-33.3-14.1-6.9-6.8-11.6-22.6-7.6-25.5 2.8-2.1 1-3.1-6.7-3.8-24.4-2.4-41-17.8-43.9-40.6-1.5-12-1.8-13-3.4-13-.8 0-2.7 1.8-4.2 4.1-9.2 14-78.3 57.6-98.8 62.5-10.3 2.4-24.1 1.5-32-2l-6-2.7L96 106.2c25.9-13 41.4-22.2 67.9-40.4 36.1-24.9 41.9-28.7 53.4-35.3 17.4-10 24.3-12.6 35.1-13.4 10.2-.7 15.8-.5 23.1 1.1zm178-.7c15.1 4 30.9 12.8 61 34 53.4 37.7 82.6 55.1 106 63.2 8.6 3 10.1 4.9 6.8 8.5-5.5 6.1-18.1 8.2-32.3 5.4-17.7-3.6-32.5-10.8-54.5-26.4-25.7-18.3-36.6-28.1-42.6-38.5-2.2-3.7-4.2-6.7-4.4-6.7-.2 0-1-.2-1.7-.5-1.2-.5-1.4 1.2-1.4 9.2 0 7.8-.5 10.9-2.2 15.3-4.4 11-16.7 23-25.8 25-2.2.5-9.4 1.2-16.1 1.6-6.8.4-12.3.9-12.3 1.1 0 .2.7 1.5 1.6 2.8 4.8 7.4-8.2 27.8-21.9 34.4-5.5 2.7-16.6 5.1-23.2 5-2.7 0-7.9-.8-11.5-1.7l-6.5-1.7-.6-19.5c-.4-10.7-.5-19.8-.3-20.1.2-.3 2.7 0 5.6.8 6.5 1.8 17.1 1.2 21.5-1.1 5-2.5 10.1-7.4 14.2-13.5l3.8-5.6-6.4-7c-17.3-18.9-18.6-38.7-3.4-54.3 5.5-5.7 11-9.1 16.2-10.1 7.5-1.5 24-1.2 30.4.4zm-95.9 1.6c2.8.7 6.3 2.8 9.4 5.6 7.9 7.1 10 17.5 5.4 26.7-4.7 9.1-10 12.8-20.5 14-6.9.9-9.6-.2-16.5-6-6.5-5.6-9.4-11.2-9.4-18.2 0-6.4 1.7-10.6 6.1-15.7 6.1-6.9 14.8-9.1 25.5-6.4zm3.8 55.6c1.8.5 1.8 1.8 1.3 31.7-.7 39.5-3.5 128.2-4.2 136.3-.4 3.4-1.2 6.3-1.9 6.6-.6.3-4.7-.6-8.9-2-5.4-1.6-8.2-3.1-9.3-4.8-2-3.1-3.3-48.7-3.4-120.4V72.7l12.3.7c6.7.4 13 1 14.1 1.3zm-152.6 9.5c4.8 11.8 4.8 11.2 0 15.1-7.8 6.3-41.1 27.7-50.3 32.3-10.8 5.3-18.4 6.9-27 5.3-6.8-1.2-11.8-3.5-11.3-5.1.2-.6 2.3-1.7 4.5-2.3 10.2-3 32.3-17.1 60.4-38.5 10.1-7.7 18.9-14 19.6-14 .6 0 2.5 3.3 4.1 7.2zm296.8 2.4c2.1 1.5 6.4 4.8 9.4 7.4 14.3 12.2 53 38.9 59.5 41 3.8 1.3 4.3 2.5 2 5.6-5.8 8.4-35.5-2.1-59-20.9-8.6-7-18.6-17-20.6-20.9-2.2-4.2-2.4-7.1-.8-11.7 1.4-3.9 4.2-4.1 9.5-.5zM225 107c7.7 7.1 8.7 5.2-10.7 19.7-23.1 17.2-31.7 21.3-45.1 21.3-13.2 0-13.5-2.3-1-9.8 11.4-6.9 22.2-15.1 35.7-27.1 6.2-5.6 12.1-10.1 13-10.1.9.1 4.5 2.8 8.1 6zm264.3.2c1.2.6 7.1 5.6 13.2 11.1 6.3 5.7 17 13.9 25.3 19.4 7.9 5.2 14.2 9.9 13.9 10.6-.6 1.9-14.5 2-22.3.2-8.6-2-16.2-6-26.2-14.1-9.9-7.9-17.2-15.9-17.2-18.8 0-2.5 3-5.7 7.5-8 3.6-1.9 3.1-1.9 5.8-.4zm-238.5 9.4c3.8 1.6 4.2 4.1 1.1 9-2.5 4.2-13.6 14.4-20.9 19.4-8.8 5.9-21.1 9.8-27.1 8.5-4.6-1-3.6-3.7 4.1-10.1 3.8-3.2 11.2-10.3 16.4-15.9 5.2-5.6 10.9-10.9 12.7-11.7 3.5-1.7 8.1-1.5 13.7.8zm214.5 1.4c1.5 1.2 5.3 5.8 8.6 10.3 5.7 7.9 15.4 17.9 21.6 22.3 2.6 1.8 2.8 2.3 1.7 3.7-2.4 2.8-6.5 2.9-14.9.2-9.2-2.9-16.7-8-25.4-17.1-8.6-9.1-11-15.3-7.1-18.6 3.9-3.4 11.7-3.8 15.5-.8zm-203.4 18.4c2.9 4.6 16.8 17.8 22.2 20.9 7.4 4.4 14.8 5.7 31.1 5.7H330v5.4c0 3-.5 5.8-1 6.1-.6.4-3.9 0-7.3-.9-9.2-2.2-21.4-3-27.2-1.6-6 1.4-18 7.3-21.6 10.6-3.6 3.5-6.6 3-13-2-7.4-5.8-14.3-14.1-17.4-20.9-3.1-6.7-3.1-6.7 6.2-17.9 8.4-10.1 9.9-10.8 13.2-5.4zm192 12.1c6.4 6.6 9.1 10.1 9.1 11.8 0 4.6-17.7 25.5-23 27.2-2.3.7-4.2-.2-13-6.7-13.3-9.7-26.5-12.4-42.9-8.8-5.7 1.2-10.6 1.8-11.1 1.4-1.2-1.4-1.8-6.6-1.1-9.4l.7-2.5 13.9.3c7.7.2 16.5-.2 19.5-.7 8.3-1.6 16.5-6.2 26.4-14.6 5-4.1 9.7-7.5 10.6-7.5 1 0 5.8 4.3 10.9 9.5zm-49.3 26.6c3.2.6 8.3 2.2 11.1 3.6 6.1 3 15.3 11.8 19 18.1 2.4 4 2.5 5.1 2.1 12.5-.7 10.2-4.1 20.3-10.2 30.1-9.4 15.1-26.4 28.6-34.1 27.2-4.8-.9-18.6-8-21.4-11-1.3-1.4-2.1-3.2-1.8-4 .4-.9 4.8-3.5 9.9-5.9 10.8-5.1 19.4-11.3 27.2-19.7 6.9-7.6 10.1-12.8 12-20.5 1.6-6 2.1-14.5.9-14.5-.3 0-2.9 1.8-5.7 3.9-7.4 5.7-9.8 6.4-19.4 5.6-10.3-.8-12-1.4-16.6-6-8-8-8.1-12.6-.4-16.3 7.5-3.7 17.9-4.9 27.4-3.1zm-84.6 3.4c5.7 2 7 3.2 7 6.5 0 6.5-8.9 14-19 16.2-7.9 1.6-14.1.4-19.6-3.8-7.4-5.7-8.5-3.8-6.4 11.1 1.3 8.6 4.1 13.6 12 20.9 8.2 7.5 25 15.7 48.5 23.5 20.5 6.7 31.6 11.3 41.5 17.1 3.8 2.2 7.3 4 7.8 4 4.2 0 22.7 20.4 27.1 30 2 4.5 2.6 7.4 2.9 16.5.7 19.6-4.5 35-15.7 46.4-6.4 6.6-17.4 14.1-20.5 14.1-2.5 0-12.7-5.1-17.3-8.6-5.1-3.9-4.6-7 2.7-15 10.2-11.2 14-19.6 14-30.9 0-11.7-6.9-20.7-22.1-29.1-4.1-2.2-16.2-8.3-26.9-13.4-46.1-22.1-59.6-31.5-68.5-47.4-9.6-17.2-7.3-35.3 6-47.5 12.6-11.4 31.8-15.8 46.5-10.6zm64.9 29.4c2 1 5.3 2.4 7.4 3.1 2.1.6 4.5 2.2 5.3 3.5.8 1.3 2.4 2.5 3.4 2.8 3.6.9 2.1 4.1-5.1 10.9-7.6 7.2-22.2 15.7-25.2 14.5-.9-.3-1.9-1.8-2.3-3.3-1.5-5.8 1.5-9 15.7-16.9 6.7-3.7 4.2-4.5-4.5-1.5-10.1 3.4-9.6 4-9.6-11.1v-13l5.7 4.6c3.1 2.6 7.3 5.4 9.2 6.4zm-53.9-.2c-.1 8.6-1.1 16.8-2.4 18-.7.7-24.6-10.7-24.6-11.8 0-.4 1.5-1.2 3.4-1.9 1.9-.6 7.4-3.7 12.2-7 4.9-3.2 9.5-5.9 10.2-6 .9 0 1.2 2.4 1.2 8.7zm-20.4 15.1c10.3 5 19.1 10.7 20.4 13.2 4.3 8-12 2.8-24.8-8-11.2-9.4-9.2-11.7 4.4-5.2zm6.7 66.9c5.3 3.6 5.8 6.3 1.9 11.7-9.1 12.8-10 23.7-3.1 40.1 4.3 10.3 9.3 14.5 34.2 28.4 14.4 8 35.5 21.6 43.3 27.9 5.6 4.4 13.1 15.4 17 25 2 4.7 2.4 7.5 2.4 16.2 0 18.2-4.8 31.7-15 42.1-5.4 5.5-12.3 9.9-15.6 9.9-2.4 0-11.8-5.6-15.9-9.5-4.7-4.4-4.6-7.4.5-14 7.9-10.3 10.5-24.1 6.3-33.5-3.2-7.3-16.1-17.1-43.3-33-16.5-9.6-24.5-15.6-32.7-24.4-7.5-8.1-12.2-15.3-16.1-24.8-2.2-5.5-2.6-8.1-3-20.2-.7-21.2 2.2-30.2 13.8-44.3l6-7.2 7.5 3.4c4.2 1.9 9.5 4.7 11.8 6.2zm31.4 15.4c2.4 1.1 5.3 3.3 6.4 4.7 2.1 2.6 2.1 3.3 1.5 24.2-.7 24.1-1.5 29-4.9 29-3.2 0-8.6-3.6-9.7-6.4-1.2-3.4-3-27.6-3-41.9V303h2.7c1.5 0 4.6.9 7 2.1zm-15.5 17.3c.3 9.1-.3 25.9-.9 26.9-2 3.3-9.7-12.4-9.7-19.8 0-6.1 2.8-13.9 5.7-16 2-1.4 2.3-1.4 3.4.2.7.9 1.4 4.9 1.5 8.7zm40.2 1.9c4 6.4 4.2 13.2.6 20.1-2.6 5.1-5.3 7.6-6.7 6.2-1-1-1.7-25.7-.9-29.2 1-3.7 3.5-2.7 7 2.9zm-62.5 81.2c9.9 5.3 17.5 10.8 17.9 12.9.2 1-1.1 4.8-3 8.4-4.4 8.8-5.1 19.2-1.8 27 3.2 7.4 13.8 17 32.6 29.5 23.2 15.4 31.9 24.6 36.5 38.5 3.2 9.7 2.4 22.3-2 31.5-3.9 8.3-13 17.9-19.6 20.8-4.3 1.9-4.8 1.9-7 .5-5.6-3.7-6-16.2-.9-29.6 1.4-3.7 1.5-5.2.5-8.7-2.2-7.8-13.1-18.3-26.6-25.4-17.8-9.3-36-24.8-42.2-35.9-7.2-12.7-10.8-31.8-8.4-44.2 2.3-11.4 11.8-28.8 15.8-28.8.8 0 4.5 1.6 8.2 3.5zm36 21.4c6.6 3.4 6.6 3.4 6.6 24 0 10.2-.3 19.4-.7 20.4-.7 1.6-1 1.7-3.8.2-6-3.1-6.2-4-7.5-34.3-.3-8-.1-12.2.5-12.2s2.8.9 4.9 1.9zm-10.1 16.8c.4 3.8-1.6 11.6-2.7 10.8-1.4-.8-2.2-7.2-1.5-11.1.8-4.5 3.8-4.4 4.2.3zm29.6 3.5c1.1 5.3-1.3 14.6-3.5 13.3-2-1.3-.2-16.5 2-16.5.5 0 1.1 1.4 1.5 3.2zm-43.9 71l7.5 4.3v11.4c0 9.4.4 12.2 2 15.5 3.2 6.7 10.4 14.1 23.9 24.5 26.9 20.9 33.8 33.2 28.1 50-2.8 8.4-12 22.4-13.6 20.8-.3-.2.3-4.6 1.2-9.8 1.8-10.5 1.4-19-1.3-24.6-.9-2-4.1-6.2-7.1-9.4-4.3-4.7-7.6-7-17.5-12-14.5-7.3-22.1-12.5-30.4-20.9-7.4-7.5-11.7-15.3-13.3-24-1.9-10.4.4-24.5 4.8-29.3 2.4-2.7 6.7-1.7 15.7 3.5zm25.8 15.6c2.3 2.5 3.6 9.5 3.7 19.3 0 9.4-1.2 12-4.4 9.6-2.4-1.8-3.5-7.7-3.6-19.3 0-11.8.8-13.5 4.3-9.6zm-9.3 6.9c-.1 5.3-.2 5.6-1.5 3.9-1.6-2.1-1.9-5.3-.9-8 1.3-3.3 2.4-1.4 2.4 4.1zm-8.9 52.9c1 .9 1.9 2.2 1.9 2.9 0 .6-2 4.1-4.4 7.9-6.6 9.9-7.5 16.3-4.9 34.1l.5 4-2.1-1.9c-4.4-4-8-13.5-9.3-24.3-1.4-12.2-.5-16.4 4.7-21.9 3.2-3.3 3.8-3.6 7.6-3.1 2.2.3 4.9 1.3 6 2.3zM349 629c1.1 25.8 1.2 54.4.1 61l-.7 4.5-.7-6.5c-.4-3.6-1.2-19.9-1.7-36.4-.9-29.7-.4-47.4 1.1-45.9.5.5 1.3 11 1.9 23.3zm-10.1-16.3c1.2 4 1.5 31.3.5 35-1 3.5-1.9 2.8-4.7-3.5-6-13.6-6.3-24.6-.9-33 2.1-3.2 4-2.7 5.1 1.5zm25.2 7.6c.6 2.3.9 8.3.7 13.5-.4 8.4-.6 9.5-3.1 11.9-1.4 1.5-3 2.3-3.4 1.9-1-1-1.1-29.5-.1-31.9 1.2-2.9 4.6-.3 5.9 4.6z"/><path d="M358.4 27.4c-.3.8.2 2.8 1 4.5 3.5 6.6.4 16.3-6.6 20.7-2.1 1.4-3.6 2.9-3.3 3.4 1.2 2 7.2 1 11.7-1.9 7.7-4.9 10.8-14.2 7.2-21.7-2.6-5.5-8.7-8.5-10-5zM392.3 179.7c-4.1 1.6 3.9 5.9 8.1 4.4 3.4-1.3 4-2.8 1.7-4-2-1.1-7.6-1.3-9.8-.4zM297.8 181.7c-1 .2-1.8 1.4-1.8 2.5 0 1.9.4 2 5.2 1.4 5.9-.8 8.7-2.4 6.6-3.7-1.4-.9-7-1-10-.2z"/></svg>